Rubik-Black.ufo
<glyph name="quotesingle" format="1">
  <advance width="264"/>
  <unicode hex="0027"/>
  <outline>
    <contour>
      <point x="56" y="710" type="line" smooth="yes" name="hr00"/>
      <point x="37" y="710"/>
      <point x="26" y="696"/>
      <point x="29" y="674" type="curve" smooth="yes"/>
      <point x="56" y="440" type="line" smooth="yes"/>
      <point x="58" y="424"/>
      <point x="65" y="408"/>
      <point x="91" y="408" type="curve" smooth="yes"/>
      <point x="173" y="408" type="line" smooth="yes"/>
      <point x="199" y="408"/>
      <point x="206" y="424"/>
      <point x="208" y="440" type="curve" smooth="yes"/>
      <point x="235" y="674" type="line" smooth="yes"/>
      <point x="238" y="696"/>
      <point x="227" y="710"/>
      <point x="208" y="710" type="curve" smooth="yes"/>
    </contour>
  </outline>
</glyph>
<glyph name="period" format="1">
  <advance width="312"/>
  <unicode hex="002E"/>
  <outline>
    <contour>
      <point x="69" y="228" type="line" smooth="yes" name="hr00"/>
      <point x="54" y="228"/>
      <point x="42" y="216"/>
      <point x="42" y="201" type="curve" smooth="yes"/>
      <point x="42" y="27" type="line" smooth="yes"/>
      <point x="42" y="12"/>
      <point x="54" y="0"/>
      <point x="69" y="0" type="curve" smooth="yes"/>
      <point x="243" y="0" type="line" smooth="yes"/>
      <point x="258" y="0"/>
      <point x="270" y="12"/>
      <point x="270" y="27" type="curve" smooth="yes"/>
      <point x="270" y="201" type="line" smooth="yes"/>
      <point x="270" y="216"/>
      <point x="258" y="228"/>
      <point x="243" y="228" type="curve" smooth="yes"/>
    </contour>
  </outline>
</glyph>
<glyph name="six" format="1">
  <advance width="692"/>
  <unicode hex="0036"/>
  <outline>
    <contour>
      <point x="538" y="665" type="line" smooth="yes" name="hr00"/>
      <point x="540" y="668"/>
      <point x="542" y="672"/>
      <point x="542" y="678" type="curve" smooth="yes"/>
      <point x="542" y="690"/>
      <point x="532" y="700"/>
      <point x="520" y="700" type="curve" smooth="yes"/>
      <point x="319" y="700" type="line" smooth="yes"/>
      <point x="297" y="700"/>
      <point x="285" y="687"/>
      <point x="280" y="680" type="curve" smooth="yes"/>
      <point x="117" y="467" type="line" smooth="yes"/>
      <point x="90" y="432"/>
      <point x="20" y="335"/>
      <point x="20" y="249" type="curve" smooth="yes"/>
      <point x="20" y="84"/>
      <point x="162" y="-10"/>
      <point x="350" y="-10" type="curve" smooth="yes"/>
      <point x="538" y="-10"/>
      <point x="671" y="103"/>
      <point x="671" y="254" type="curve" smooth="yes"/>
      <point x="671" y="414"/>
      <point x="509" y="493"/>
      <point x="412" y="498" type="curve"/>
    </contour>
    <contour>
      <point x="416" y="250" type="curve" smooth="yes"/>
      <point x="416" y="208"/>
      <point x="385" y="185"/>
      <point x="347" y="185" type="curve" smooth="yes"/>
      <point x="309" y="185"/>
      <point x="278" y="208"/>
      <point x="278" y="250" type="curve" smooth="yes"/>
      <point x="278" y="292"/>
      <point x="308" y="315"/>
      <point x="347" y="315" type="curve" smooth="yes"/>
      <point x="386" y="315"/>
      <point x="416" y="292"/>
    </contour>
  </outline>
</glyph>
<glyph name="semicolon" format="1">
  <advance width="325"/>
  <unicode hex="003B"/>
  <outline>
    <contour>
      <point x="88" y="568" type="line" smooth="yes" name="hr00"/>
      <point x="73" y="568"/>
      <point x="61" y="556"/>
      <point x="61" y="541" type="curve" smooth="yes"/>
      <point x="61" y="377" type="line" smooth="yes"/>
      <point x="61" y="362"/>
      <point x="73" y="350"/>
      <point x="88" y="350" type="curve" smooth="yes"/>
      <point x="262" y="350" type="line" smooth="yes"/>
      <point x="277" y="350"/>
      <point x="289" y="362"/>
      <point x="289" y="377" type="curve" smooth="yes"/>
      <point x="289" y="541" type="line" smooth="yes"/>
      <point x="289" y="556"/>
      <point x="277" y="568"/>
      <point x="262" y="568" type="curve" smooth="yes"/>
    </contour>
    <contour>
      <point x="19" y="-51" type="line" smooth="yes"/>
      <point x="19" y="-53"/>
      <point x="19" y="-51"/>
      <point x="19" y="-53" type="curve" smooth="yes"/>
      <point x="19" y="-65"/>
      <point x="29" y="-75"/>
      <point x="41" y="-75" type="curve" smooth="yes"/>
      <point x="142" y="-75" type="line" smooth="yes"/>
      <point x="168" y="-75"/>
      <point x="180" y="-56"/>
      <point x="185" y="-43" type="curve" smooth="yes"/>
      <point x="280" y="199" type="line" smooth="yes"/>
      <point x="281" y="202"/>
      <point x="281" y="204"/>
      <point x="281" y="206" type="curve" smooth="yes"/>
      <point x="281" y="218"/>
      <point x="271" y="228"/>
      <point x="259" y="228" type="curve" smooth="yes"/>
      <point x="99" y="228" type="line" smooth="yes"/>
      <point x="72" y="228"/>
      <point x="59" y="207"/>
      <point x="56" y="189" type="curve" smooth="yes"/>
    </contour>
  </outline>
</glyph>
<glyph name="F" format="1">
  <advance width="646"/>
  <unicode hex="0046"/>
  <outline>
    <contour>
      <point x="82" y="700" type="line" smooth="yes" name="hr00"/>
      <point x="67" y="700"/>
      <point x="55" y="688"/>
      <point x="55" y="673" type="curve" smooth="yes"/>
      <point x="55" y="27" type="line" smooth="yes"/>
      <point x="55" y="12"/>
      <point x="67" y="0"/>
      <point x="82" y="0" type="curve" smooth="yes"/>
      <point x="273" y="0" type="line" smooth="yes"/>
      <point x="288" y="0"/>
      <point x="300" y="12"/>
      <point x="300" y="27" type="curve" smooth="yes"/>
      <point x="300" y="215" type="line"/>
      <point x="566" y="215" type="line" smooth="yes"/>
      <point x="581" y="215"/>
      <point x="593" y="227"/>
      <point x="593" y="242" type="curve" smooth="yes"/>
      <point x="593" y="393" type="line" smooth="yes"/>
      <point x="593" y="408"/>
      <point x="581" y="420"/>
      <point x="566" y="420" type="curve" smooth="yes"/>
      <point x="300" y="420" type="line"/>
      <point x="300" y="494" type="line"/>
      <point x="586" y="494" type="line" smooth="yes"/>
      <point x="601" y="494"/>
      <point x="613" y="506"/>
      <point x="613" y="521" type="curve" smooth="yes"/>
      <point x="613" y="673" type="line" smooth="yes"/>
      <point x="613" y="688"/>
      <point x="601" y="700"/>
      <point x="586" y="700" type="curve" smooth="yes"/>
    </contour>
  </outline>
</glyph>
<glyph name="b" format="1">
  <advance width="661"/>
  <unicode hex="0062"/>
  <outline>
    <contour>
      <point x="417" y="530" type="curve" smooth="yes"/>
      <point x="361" y="530"/>
      <point x="316" y="512"/>
      <point x="284" y="483" type="curve"/>
      <point x="284" y="683" type="line" smooth="yes"/>
      <point x="284" y="698"/>
      <point x="272" y="710"/>
      <point x="257" y="710" type="curve" smooth="yes"/>
      <point x="72" y="710" type="line" smooth="yes"/>
      <point x="57" y="710"/>
      <point x="45" y="698"/>
      <point x="45" y="683" type="curve" smooth="yes"/>
      <point x="45" y="27" type="line" smooth="yes"/>
      <point x="45" y="12"/>
      <point x="57" y="0"/>
      <point x="72" y="0" type="curve" smooth="yes"/>
      <point x="242" y="0" type="line" smooth="yes"/>
      <point x="257" y="0"/>
      <point x="269" y="12"/>
      <point x="269" y="27" type="curve" smooth="yes"/>
      <point x="269" y="50" type="line"/>
      <point x="301" y="14"/>
      <point x="348" y="-10"/>
      <point x="417" y="-10" type="curve" smooth="yes" name="hr01"/>
      <point x="533" y="-10"/>
      <point x="622" y="54"/>
      <point x="629" y="221" type="curve" smooth="yes"/>
      <point x="630" y="251"/>
      <point x="630" y="270"/>
      <point x="629" y="300" type="curve" smooth="yes"/>
      <point x="623" y="457"/>
      <point x="533" y="530"/>
    </contour>
    <contour>
      <point x="384" y="293" type="curve" smooth="yes"/>
      <point x="386" y="273"/>
      <point x="386" y="247"/>
      <point x="384" y="227" type="curve" smooth="yes"/>
      <point x="380" y="191"/>
      <point x="371" y="169"/>
      <point x="334" y="169" type="curve" smooth="yes" name="hr02"/>
      <point x="297" y="169"/>
      <point x="286" y="191"/>
      <point x="284" y="227" type="curve" smooth="yes"/>
      <point x="282" y="257"/>
      <point x="282" y="271"/>
      <point x="284" y="301" type="curve" smooth="yes"/>
      <point x="286" y="333"/>
      <point x="300" y="351"/>
      <point x="334" y="351" type="curve" smooth="yes"/>
      <point x="371" y="351"/>
      <point x="380" y="329"/>
    </contour>
  </outline>
</glyph>
<glyph name="n" format="1">
  <advance width="674"/>
  <unicode hex="006E"/>
  <outline>
    <contour>
      <point x="634" y="303" type="line" smooth="yes"/>
      <point x="634" y="461"/>
      <point x="541" y="530"/>
      <point x="440" y="530" type="curve" smooth="yes"/>
      <point x="369" y="530"/>
      <point x="307" y="499"/>
      <point x="274" y="460" type="curve"/>
      <point x="274" y="493" type="line" smooth="yes"/>
      <point x="274" y="508"/>
      <point x="262" y="520"/>
      <point x="247" y="520" type="curve" smooth="yes" name="hr01"/>
      <point x="72" y="520" type="line" smooth="yes"/>
      <point x="57" y="520"/>
      <point x="45" y="508"/>
      <point x="45" y="493" type="curve" smooth="yes"/>
      <point x="45" y="27" type="line" smooth="yes"/>
      <point x="45" y="12"/>
      <point x="57" y="0"/>
      <point x="72" y="0" type="curve" smooth="yes"/>
      <point x="262" y="0" type="line" smooth="yes"/>
      <point x="277" y="0"/>
      <point x="289" y="12"/>
      <point x="289" y="27" type="curve" smooth="yes"/>
      <point x="289" y="296" type="line" smooth="yes"/>
      <point x="289" y="332"/>
      <point x="307" y="351"/>
      <point x="339" y="351" type="curve" smooth="yes" name="hr02"/>
      <point x="371" y="351"/>
      <point x="389" y="332"/>
      <point x="389" y="296" type="curve" smooth="yes"/>
      <point x="389" y="27" type="line" smooth="yes"/>
      <point x="389" y="12"/>
      <point x="401" y="0"/>
      <point x="416" y="0" type="curve" smooth="yes"/>
      <point x="607" y="0" type="line" smooth="yes"/>
      <point x="622" y="0"/>
      <point x="634" y="12"/>
      <point x="634" y="27" type="curve" smooth="yes"/>
    </contour>
  </outline>
</glyph>
<glyph name="u" format="1">
  <advance width="674"/>
  <unicode hex="0075"/>
  <outline>
    <contour>
      <point x="40" y="217" type="line"/>
      <point x="40" y="59"/>
      <point x="133" y="-10"/>
      <point x="234" y="-10" type="curve" smooth="yes"/>
      <point x="305" y="-10"/>
      <point x="367" y="11"/>
      <point x="400" y="60" type="curve"/>
      <point x="400" y="27" type="line" smooth="yes"/>
      <point x="400" y="12"/>
      <point x="412" y="0"/>
      <point x="427" y="0" type="curve" smooth="yes" name="hr01"/>
      <point x="602" y="0" type="line" smooth="yes"/>
      <point x="617" y="0"/>
      <point x="629" y="12"/>
      <point x="629" y="27" type="curve" smooth="yes"/>
      <point x="629" y="493" type="line" smooth="yes"/>
      <point x="629" y="508"/>
      <point x="617" y="520"/>
      <point x="602" y="520" type="curve" smooth="yes"/>
      <point x="412" y="520" type="line" smooth="yes"/>
      <point x="397" y="520"/>
      <point x="385" y="508"/>
      <point x="385" y="493" type="curve" smooth="yes"/>
      <point x="385" y="224" type="line" smooth="yes"/>
      <point x="385" y="188"/>
      <point x="367" y="169"/>
      <point x="335" y="169" type="curve" smooth="yes" name="hr02"/>
      <point x="303" y="169"/>
      <point x="285" y="188"/>
      <point x="285" y="224" type="curve" smooth="yes"/>
      <point x="285" y="493" type="line" smooth="yes"/>
      <point x="285" y="508"/>
      <point x="273" y="520"/>
      <point x="258" y="520" type="curve" smooth="yes"/>
      <point x="67" y="520" type="line" smooth="yes"/>
      <point x="52" y="520"/>
      <point x="40" y="508"/>
      <point x="40" y="493" type="curve" smooth="yes"/>
    </contour>
  </outline>
</glyph>
<glyph name="logicalnot" format="1">
  <advance width="564"/>
  <unicode hex="00AC"/>
  <outline>
    <contour>
      <point x="341" y="80" type="line" smooth="yes" name="hr00"/>
      <point x="341" y="65"/>
      <point x="353" y="53"/>
      <point x="368" y="53" type="curve" smooth="yes"/>
      <point x="484" y="53" type="line" smooth="yes"/>
      <point x="499" y="53"/>
      <point x="511" y="65"/>
      <point x="511" y="80" type="curve" smooth="yes"/>
      <point x="511" y="323" type="line" smooth="yes"/>
      <point x="511" y="338"/>
      <point x="499" y="350"/>
      <point x="484" y="350" type="curve" smooth="yes"/>
      <point x="69" y="350" type="line" smooth="yes"/>
      <point x="54" y="350"/>
      <point x="42" y="338"/>
      <point x="42" y="323" type="curve" smooth="yes"/>
      <point x="42" y="207" type="line" smooth="yes"/>
      <point x="42" y="192"/>
      <point x="54" y="180"/>
      <point x="69" y="180" type="curve" smooth="yes"/>
      <point x="341" y="180" type="line"/>
    </contour>
  </outline>
</glyph>
<glyph name="registered" format="1">
  <advance width="792"/>
  <unicode hex="00AE"/>
  <outline>
    <contour>
      <point x="265" y="168" type="curve" name="hr00"/>
      <point x="352" y="168" type="line" smooth="yes"/>
      <point x="365" y="168"/>
      <point x="374" y="177"/>
      <point x="374" y="190" type="curve" smooth="yes"/>
      <point x="374" y="282" type="line"/>
      <point x="395" y="282" type="line"/>
      <point x="428" y="187" type="line"/>
      <point x="433" y="174"/>
      <point x="443" y="168"/>
      <point x="457" y="168" type="curve" smooth="yes"/>
      <point x="542" y="168" type="line" smooth="yes"/>
      <point x="557" y="168"/>
      <point x="564" y="179"/>
      <point x="564" y="190" type="curve"/>
      <point x="564" y="196"/>
      <point x="562" y="200"/>
      <point x="560" y="204" type="curve" smooth="yes"/>
      <point x="515" y="307" type="line"/>
      <point x="545" y="323"/>
      <point x="571" y="356"/>
      <point x="571" y="409" type="curve" smooth="yes"/>
      <point x="571" y="501"/>
      <point x="487" y="534"/>
      <point x="411" y="534" type="curve" smooth="yes"/>
      <point x="265" y="534" type="line" smooth="yes"/>
      <point x="252" y="534"/>
      <point x="243" y="525"/>
      <point x="243" y="512" type="curve" smooth="yes"/>
      <point x="243" y="190" type="line" smooth="yes"/>
      <point x="243" y="177"/>
      <point x="252" y="168"/>
    </contour>
    <contour>
      <point x="374" y="437" type="line"/>
      <point x="411" y="437" type="line" smooth="yes"/>
      <point x="427" y="437"/>
      <point x="436" y="425"/>
      <point x="436" y="409" type="curve" smooth="yes"/>
      <point x="436" y="393"/>
      <point x="427" y="381"/>
      <point x="411" y="381" type="curve" smooth="yes"/>
      <point x="374" y="381" type="line"/>
    </contour>
    <contour>
      <point x="36" y="350" type="curve" smooth="yes"/>
      <point x="36" y="151"/>
      <point x="197" y="-10"/>
      <point x="396" y="-10" type="curve" smooth="yes"/>
      <point x="595" y="-10"/>
      <point x="756" y="151"/>
      <point x="756" y="350" type="curve" smooth="yes"/>
      <point x="756" y="549"/>
      <point x="595" y="710"/>
      <point x="396" y="710" type="curve" smooth="yes"/>
      <point x="197" y="710"/>
      <point x="36" y="549"/>
    </contour>
    <contour>
      <point x="136" y="350" type="curve" smooth="yes"/>
      <point x="136" y="496"/>
      <point x="250" y="615"/>
      <point x="396" y="615" type="curve" smooth="yes"/>
      <point x="542" y="615"/>
      <point x="656" y="496"/>
      <point x="656" y="350" type="curve" smooth="yes"/>
      <point x="656" y="204"/>
      <point x="542" y="85"/>
      <point x="396" y="85" type="curve" smooth="yes"/>
      <point x="250" y="85"/>
      <point x="136" y="204"/>
    </contour>
  </outline>
</glyph>
<glyph name="paragraph" format="1">
  <advance width="709"/>
  <unicode hex="00B6"/>
  <outline>
    <contour>
      <point x="23" y="503" type="curve" smooth="yes" name="hr00"/>
      <point x="23" y="394"/>
      <point x="111" y="306"/>
      <point x="220" y="306" type="curve"/>
      <point x="220" y="-73" type="line" smooth="yes"/>
      <point x="220" y="-88"/>
      <point x="232" y="-100"/>
      <point x="247" y="-100" type="curve" smooth="yes"/>
      <point x="368" y="-100" type="line" smooth="yes"/>
      <point x="383" y="-100"/>
      <point x="395" y="-88"/>
      <point x="395" y="-73" type="curve" smooth="yes"/>
      <point x="395" y="550" type="line"/>
      <point x="474" y="550" type="line"/>
      <point x="474" y="-73" type="line" smooth="yes"/>
      <point x="474" y="-88"/>
      <point x="486" y="-100"/>
      <point x="501" y="-100" type="curve" smooth="yes"/>
      <point x="622" y="-100" type="line" smooth="yes"/>
      <point x="637" y="-100"/>
      <point x="649" y="-88"/>
      <point x="649" y="-73" type="curve" smooth="yes"/>
      <point x="649" y="673" type="line" smooth="yes"/>
      <point x="649" y="688"/>
      <point x="637" y="700"/>
      <point x="622" y="700" type="curve" smooth="yes"/>
      <point x="220" y="700" type="line" smooth="yes"/>
      <point x="111" y="700"/>
      <point x="23" y="612"/>
    </contour>
  </outline>
</glyph>
<glyph name="ae" format="1">
  <advance width="935"/>
  <unicode hex="00E6"/>
  <outline>
    <contour>
      <point x="17" y="149" type="curve" smooth="yes"/>
      <point x="17" y="59"/>
      <point x="95" y="-10"/>
      <point x="231" y="-10" type="curve" smooth="yes"/>
      <point x="290" y="-10"/>
      <point x="367" y="-1"/>
      <point x="428" y="51" type="curve"/>
      <point x="476" y="11"/>
      <point x="544" y="-10"/>
      <point x="625" y="-10" type="curve" smooth="yes"/>
      <point x="810" y="-10"/>
      <point x="896" y="94"/>
      <point x="896" y="145" type="curve" smooth="yes"/>
      <point x="896" y="158"/>
      <point x="887" y="167"/>
      <point x="874" y="167" type="curve" smooth="yes" name="hr01"/>
      <point x="685" y="167" type="line" smooth="yes"/>
      <point x="669" y="167"/>
      <point x="664" y="165"/>
      <point x="652" y="153" type="curve" smooth="yes"/>
      <point x="641" y="142"/>
      <point x="635" y="135"/>
      <point x="623" y="135" type="curve" smooth="yes" name="hr02"/>
      <point x="594" y="135"/>
      <point x="584" y="156"/>
      <point x="584" y="196" type="curve" smooth="yes"/>
      <point x="584" y="201" type="line"/>
      <point x="882" y="201" type="line" smooth="yes"/>
      <point x="897" y="201"/>
      <point x="909" y="213"/>
      <point x="909" y="228" type="curve" smooth="yes"/>
      <point x="909" y="258" type="line" smooth="yes"/>
      <point x="909" y="405"/>
      <point x="820" y="530"/>
      <point x="624" y="530" type="curve" smooth="yes"/>
      <point x="565" y="530"/>
      <point x="514" y="516"/>
      <point x="471" y="493" type="curve"/>
      <point x="438" y="517"/>
      <point x="388" y="530"/>
      <point x="314" y="530" type="curve" smooth="yes"/>
      <point x="127" y="530"/>
      <point x="51" y="431"/>
      <point x="51" y="380" type="curve" smooth="yes"/>
      <point x="51" y="367"/>
      <point x="60" y="358"/>
      <point x="73" y="358" type="curve" smooth="yes"/>
      <point x="243" y="358" type="line" smooth="yes"/>
      <point x="275" y="358"/>
      <point x="278" y="390"/>
      <point x="312" y="390" type="curve" smooth="yes" name="hr03"/>
      <point x="340" y="390"/>
      <point x="342" y="375"/>
      <point x="342" y="339" type="curve"/>
      <point x="236" y="322" type="line"/>
      <point x="103" y="299"/>
      <point x="17" y="246"/>
    </contour>
    <contour>
      <point x="280" y="138" type="curve" smooth="yes"/>
      <point x="255" y="138"/>
      <point x="242" y="151"/>
      <point x="242" y="166" type="curve" smooth="yes"/>
      <point x="242" y="180"/>
      <point x="251" y="195"/>
      <point x="286" y="203" type="curve" smooth="yes"/>
      <point x="345" y="216" type="line"/>
      <point x="345" y="162"/>
      <point x="319" y="138"/>
    </contour>
    <contour>
      <point x="624" y="390" type="curve" smooth="yes"/>
      <point x="649" y="390"/>
      <point x="664" y="371"/>
      <point x="664" y="330" type="curve" smooth="yes"/>
      <point x="664" y="326" type="line"/>
      <point x="584" y="326" type="line"/>
      <point x="584" y="330" type="line" smooth="yes"/>
      <point x="584" y="371"/>
      <point x="598" y="390"/>
    </contour>
  </outline>
</glyph>
<glyph name="Ldot" format="1">
  <advance width="627"/>
  <unicode hex="013F"/>
  <outline>
    <contour>
      <point x="388" y="491" type="line" smooth="yes" name="hr00"/>
      <point x="375" y="491"/>
      <point x="365" y="481"/>
      <point x="365" y="468" type="curve" smooth="yes"/>
      <point x="365" y="332" type="line" smooth="yes"/>
      <point x="365" y="319"/>
      <point x="375" y="309"/>
      <point x="388" y="309" type="curve" smooth="yes"/>
      <point x="524" y="309" type="line" smooth="yes"/>
      <point x="537" y="309"/>
      <point x="547" y="319"/>
      <point x="547" y="332" type="curve" smooth="yes"/>
      <point x="547" y="468" type="line" smooth="yes"/>
      <point x="547" y="481"/>
      <point x="537" y="491"/>
      <point x="524" y="491" type="curve" smooth="yes"/>
    </contour>
    <component base="L"/>
  </outline>
</glyph>
<glyph name="Lslash" format="1">
  <advance width="634"/>
  <unicode hex="0141"/>
  <outline>
    <contour>
      <point x="35" y="377" type="line" smooth="yes" name="hr00"/>
      <point x="19" y="371"/>
      <point x="13" y="362"/>
      <point x="13" y="344" type="curve" smooth="yes"/>
      <point x="13" y="236" type="line" smooth="yes"/>
      <point x="13" y="224"/>
      <point x="22" y="215"/>
      <point x="34" y="215" type="curve" smooth="yes"/>
      <point x="36" y="215"/>
      <point x="40" y="216"/>
      <point x="45" y="218" type="curve" smooth="yes"/>
      <point x="63" y="225" type="line"/>
      <point x="63" y="27" type="line" smooth="yes"/>
      <point x="63" y="12"/>
      <point x="75" y="0"/>
      <point x="90" y="0" type="curve" smooth="yes"/>
      <point x="594" y="0" type="line" smooth="yes"/>
      <point x="609" y="0"/>
      <point x="621" y="12"/>
      <point x="621" y="27" type="curve" smooth="yes"/>
      <point x="621" y="178" type="line" smooth="yes"/>
      <point x="621" y="193"/>
      <point x="609" y="205"/>
      <point x="594" y="205" type="curve" smooth="yes"/>
      <point x="317" y="205" type="line"/>
      <point x="317" y="325" type="line"/>
      <point x="472" y="386" type="line" smooth="yes"/>
      <point x="488" y="392"/>
      <point x="494" y="401"/>
      <point x="494" y="419" type="curve" smooth="yes"/>
      <point x="494" y="527" type="line" smooth="yes"/>
      <point x="494" y="539"/>
      <point x="485" y="548"/>
      <point x="473" y="548" type="curve" smooth="yes"/>
      <point x="471" y="548"/>
      <point x="467" y="547"/>
      <point x="462" y="545" type="curve" smooth="yes"/>
      <point x="317" y="488" type="line"/>
      <point x="317" y="673" type="line" smooth="yes"/>
      <point x="317" y="688"/>
      <point x="305" y="700"/>
      <point x="290" y="700" type="curve" smooth="yes"/>
      <point x="90" y="700" type="line" smooth="yes"/>
      <point x="75" y="700"/>
      <point x="63" y="688"/>
      <point x="63" y="673" type="curve" smooth="yes"/>
      <point x="63" y="388" type="line"/>
    </contour>
  </outline>
</glyph>
<glyph name="afii10058" format="1">
  <advance width="1159"/>
  <unicode hex="0409"/>
  <outline>
    <contour>
      <point x="46" y="-10" type="curve" smooth="yes"/>
      <point x="236" y="-10"/>
      <point x="369" y="74"/>
      <point x="369" y="263" type="curve" smooth="yes"/>
      <point x="369" y="480" type="line"/>
      <point x="509" y="480" type="line"/>
      <point x="509" y="27" type="line" smooth="yes"/>
      <point x="509" y="12"/>
      <point x="521" y="0"/>
      <point x="536" y="0" type="curve" smooth="yes" name="hr01"/>
      <point x="834" y="0" type="line" smooth="yes"/>
      <point x="1020" y="0"/>
      <point x="1140" y="79"/>
      <point x="1140" y="245" type="curve" smooth="yes"/>
      <point x="1140" y="411"/>
      <point x="1020" y="482"/>
      <point x="834" y="482" type="curve" smooth="yes"/>
      <point x="769" y="482" type="line"/>
      <point x="769" y="673" type="line" smooth="yes"/>
      <point x="769" y="688"/>
      <point x="757" y="700"/>
      <point x="742" y="700" type="curve" smooth="yes" name="hr02"/>
      <point x="146" y="700" type="line" smooth="yes"/>
      <point x="131" y="700"/>
      <point x="119" y="688"/>
      <point x="119" y="673" type="curve" smooth="yes"/>
      <point x="119" y="268" type="line" smooth="yes"/>
      <point x="119" y="218"/>
      <point x="94" y="191"/>
      <point x="45" y="191" type="curve" smooth="yes"/>
      <point x="30" y="191"/>
      <point x="18" y="179"/>
      <point x="18" y="164" type="curve" smooth="yes"/>
      <point x="18" y="17" type="line" smooth="yes"/>
      <point x="18" y="2"/>
      <point x="31" y="-10"/>
    </contour>
    <contour>
      <point x="763" y="297" type="line"/>
      <point x="833" y="297" type="line" smooth="yes"/>
      <point x="854" y="297"/>
      <point x="879" y="282"/>
      <point x="879" y="243" type="curve" smooth="yes"/>
      <point x="879" y="218"/>
      <point x="869" y="186"/>
      <point x="833" y="186" type="curve" smooth="yes"/>
      <point x="763" y="186" type="line"/>
    </contour>
  </outline>
</glyph>
<glyph name="afii10041" format="1">
  <advance width="737"/>
  <unicode hex="0427"/>
  <outline>
    <contour>
      <point x="288" y="673" type="line" smooth="yes" name="hr00"/>
      <point x="288" y="688"/>
      <point x="276" y="700"/>
      <point x="261" y="700" type="curve" smooth="yes"/>
      <point x="56" y="700" type="line" smooth="yes"/>
      <point x="41" y="700"/>
      <point x="29" y="688"/>
      <point x="29" y="673" type="curve" smooth="yes"/>
      <point x="28" y="491" type="line" smooth="yes"/>
      <point x="27" y="291"/>
      <point x="145" y="206"/>
      <point x="345" y="206" type="curve" smooth="yes"/>
      <point x="423" y="206" type="line"/>
      <point x="423" y="27" type="line" smooth="yes"/>
      <point x="423" y="12"/>
      <point x="435" y="0"/>
      <point x="450" y="0" type="curve" smooth="yes"/>
      <point x="656" y="0" type="line" smooth="yes"/>
      <point x="671" y="0"/>
      <point x="683" y="12"/>
      <point x="683" y="27" type="curve" smooth="yes"/>
      <point x="683" y="673" type="line" smooth="yes"/>
      <point x="683" y="688"/>
      <point x="671" y="700"/>
      <point x="656" y="700" type="curve" smooth="yes"/>
      <point x="450" y="700" type="line" smooth="yes"/>
      <point x="435" y="700"/>
      <point x="423" y="688"/>
      <point x="423" y="673" type="curve" smooth="yes"/>
      <point x="423" y="434" type="line"/>
      <point x="355" y="434" type="line" smooth="yes"/>
      <point x="308" y="434"/>
      <point x="288" y="454"/>
      <point x="288" y="501" type="curve" smooth="yes"/>
    </contour>
  </outline>
</glyph>
<glyph name="afii10042" format="1">
  <advance width="963"/>
  <unicode hex="0428"/>
  <outline>
    <contour>
      <point x="881" y="0" type="line" smooth="yes" name="hr00"/>
      <point x="896" y="0"/>
      <point x="908" y="12"/>
      <point x="908" y="27" type="curve" smooth="yes"/>
      <point x="908" y="673" type="line" smooth="yes"/>
      <point x="908" y="688"/>
      <point x="896" y="700"/>
      <point x="881" y="700" type="curve" smooth="yes"/>
      <point x="695" y="700" type="line" smooth="yes"/>
      <point x="680" y="700"/>
      <point x="668" y="688"/>
      <point x="668" y="673" type="curve" smooth="yes"/>
      <point x="668" y="220" type="line"/>
      <point x="592" y="220" type="line"/>
      <point x="592" y="673" type="line" smooth="yes"/>
      <point x="592" y="688"/>
      <point x="580" y="700"/>
      <point x="565" y="700" type="curve" smooth="yes"/>
      <point x="399" y="700" type="line" smooth="yes"/>
      <point x="384" y="700"/>
      <point x="372" y="688"/>
      <point x="372" y="673" type="curve" smooth="yes"/>
      <point x="372" y="220" type="line"/>
      <point x="295" y="220" type="line"/>
      <point x="295" y="673" type="line" smooth="yes"/>
      <point x="295" y="688"/>
      <point x="283" y="700"/>
      <point x="268" y="700" type="curve" smooth="yes"/>
      <point x="82" y="700" type="line" smooth="yes"/>
      <point x="67" y="700"/>
      <point x="55" y="689"/>
      <point x="55" y="673" type="curve" smooth="yes"/>
      <point x="55" y="27" type="line" smooth="yes"/>
      <point x="55" y="12"/>
      <point x="67" y="0"/>
      <point x="82" y="0" type="curve" smooth="yes"/>
    </contour>
  </outline>
</glyph>
<glyph name="afii10068" format="1">
  <advance width="510"/>
  <unicode hex="0433"/>
  <outline>
    <contour>
      <point x="72" y="520" type="line" smooth="yes" name="hr00"/>
      <point x="57" y="520"/>
      <point x="45" y="508"/>
      <point x="45" y="493" type="curve" smooth="yes"/>
      <point x="46" y="27" type="line" smooth="yes"/>
      <point x="46" y="12"/>
      <point x="58" y="0"/>
      <point x="73" y="0" type="curve" smooth="yes"/>
      <point x="248" y="0" type="line" smooth="yes"/>
      <point x="263" y="0"/>
      <point x="275" y="12"/>
      <point x="275" y="27" type="curve" smooth="yes"/>
      <point x="275" y="345" type="line"/>
      <point x="468" y="345" type="line" smooth="yes"/>
      <point x="483" y="345"/>
      <point x="495" y="357"/>
      <point x="495" y="372" type="curve" smooth="yes"/>
      <point x="495" y="493" type="line" smooth="yes"/>
      <point x="495" y="508"/>
      <point x="483" y="520"/>
      <point x="468" y="520" type="curve" smooth="yes"/>
    </contour>
  </outline>
</glyph>
<glyph name="afii10076" format="1">
  <advance width="644"/>
  <unicode hex="043A"/>
  <outline>
    <contour>
      <point x="274" y="493" type="line" smooth="yes" name="hr00"/>
      <point x="274" y="508"/>
      <point x="262" y="520"/>
      <point x="247" y="520" type="curve" smooth="yes"/>
      <point x="72" y="520" type="line" smooth="yes"/>
      <point x="57" y="520"/>
      <point x="45" y="508"/>
      <point x="45" y="493" type="curve" smooth="yes"/>
      <point x="45" y="27" type="line" smooth="yes"/>
      <point x="45" y="12"/>
      <point x="57" y="0"/>
      <point x="72" y="0" type="curve" smooth="yes"/>
      <point x="247" y="0" type="line" smooth="yes"/>
      <point x="262" y="0"/>
      <point x="274" y="12"/>
      <point x="274" y="27" type="curve" smooth="yes"/>
      <point x="274" y="187" type="line"/>
      <point x="376" y="17" type="line" smooth="yes"/>
      <point x="378" y="14"/>
      <point x="387" y="0"/>
      <point x="407" y="0" type="curve" smooth="yes"/>
      <point x="617" y="0" type="line" smooth="yes"/>
      <point x="630" y="0"/>
      <point x="641" y="11"/>
      <point x="641" y="24" type="curve" smooth="yes"/>
      <point x="641" y="30"/>
      <point x="639" y="34"/>
      <point x="637" y="37" type="curve" smooth="yes"/>
      <point x="485" y="266" type="line"/>
      <point x="612" y="481" type="line" smooth="yes"/>
      <point x="614" y="484"/>
      <point x="617" y="490"/>
      <point x="617" y="496" type="curve" smooth="yes"/>
      <point x="617" y="509"/>
      <point x="606" y="520"/>
      <point x="593" y="520" type="curve" smooth="yes"/>
      <point x="401" y="520" type="line" smooth="yes"/>
      <point x="383" y="520"/>
      <point x="375" y="508"/>
      <point x="372" y="503" type="curve" smooth="yes"/>
      <point x="274" y="329" type="line"/>
    </contour>
  </outline>
</glyph>
<glyph name="afii10088" format="1">
  <advance width="689"/>
  <unicode hex="0446"/>
  <outline>
    <contour>
      <point x="486" y="0" type="line"/>
      <point x="486" y="-83" type="line" smooth="yes"/>
      <point x="486" y="-98"/>
      <point x="498" y="-110"/>
      <point x="513" y="-110" type="curve" smooth="yes"/>
      <point x="642" y="-110" type="line" smooth="yes"/>
      <point x="657" y="-110"/>
      <point x="669" y="-98"/>
      <point x="669" y="-83" type="curve" smooth="yes"/>
      <point x="669" y="148" type="line" smooth="yes"/>
      <point x="669" y="163"/>
      <point x="657" y="175"/>
      <point x="642" y="175" type="curve" smooth="yes"/>
      <point x="578" y="175" type="line" name="hr01"/>
      <point x="578" y="493" type="line" smooth="yes"/>
      <point x="578" y="508"/>
      <point x="566" y="520"/>
      <point x="551" y="520" type="curve" smooth="yes"/>
      <point x="382" y="520" type="line" smooth="yes"/>
      <point x="367" y="520"/>
      <point x="355" y="508"/>
      <point x="355" y="493" type="curve" smooth="yes"/>
      <point x="355" y="175" type="line"/>
      <point x="268" y="175" type="line"/>
      <point x="268" y="493" type="line" smooth="yes"/>
      <point x="268" y="508"/>
      <point x="256" y="520"/>
      <point x="241" y="520" type="curve" smooth="yes"/>
      <point x="72" y="520" type="line" smooth="yes"/>
      <point x="57" y="520"/>
      <point x="45" y="508"/>
      <point x="45" y="493" type="curve" smooth="yes"/>
      <point x="45" y="27" type="line" smooth="yes" name="hr02"/>
      <point x="45" y="12"/>
      <point x="57" y="0"/>
      <point x="72" y="0" type="curve" smooth="yes"/>
    </contour>
  </outline>
</glyph>
<glyph name="afii10089" format="1">
  <advance width="646"/>
  <unicode hex="0447"/>
  <outline>
    <contour>
      <point x="352" y="319" type="line" name="hr00"/>
      <point x="310" y="319" type="line" smooth="yes"/>
      <point x="276" y="319"/>
      <point x="266" y="328"/>
      <point x="266" y="364" type="curve" smooth="yes"/>
      <point x="266" y="493" type="line" smooth="yes"/>
      <point x="266" y="508"/>
      <point x="254" y="520"/>
      <point x="239" y="520" type="curve" smooth="yes"/>
      <point x="53" y="520" type="line" smooth="yes"/>
      <point x="38" y="520"/>
      <point x="26" y="508"/>
      <point x="26" y="493" type="curve" smooth="yes"/>
      <point x="26" y="354" type="line" smooth="yes"/>
      <point x="26" y="184"/>
      <point x="130" y="120"/>
      <point x="300" y="120" type="curve" smooth="yes"/>
      <point x="352" y="120" type="line"/>
      <point x="352" y="27" type="line" smooth="yes"/>
      <point x="352" y="12"/>
      <point x="364" y="0"/>
      <point x="379" y="0" type="curve" smooth="yes"/>
      <point x="574" y="0" type="line" smooth="yes"/>
      <point x="589" y="0"/>
      <point x="601" y="12"/>
      <point x="601" y="27" type="curve" smooth="yes"/>
      <point x="601" y="493" type="line" smooth="yes"/>
      <point x="601" y="508"/>
      <point x="589" y="520"/>
      <point x="574" y="520" type="curve" smooth="yes"/>
      <point x="379" y="520" type="line" smooth="yes"/>
      <point x="364" y="520"/>
      <point x="352" y="508"/>
      <point x="352" y="493" type="curve" smooth="yes"/>
    </contour>
  </outline>
</glyph>
<glyph name="gimelhebrew" format="1">
  <advance width="592"/>
  <unicode hex="05D2"/>
  <outline>
    <contour>
      <point x="474" y="252" type="line"/>
      <point x="474" y="337" type="line" smooth="yes"/>
      <point x="474" y="526"/>
      <point x="356" y="581"/>
      <point x="171" y="581" type="curve" smooth="yes"/>
      <point x="85" y="581" type="line" smooth="yes"/>
      <point x="70" y="581"/>
      <point x="58" y="569"/>
      <point x="58" y="554" type="curve" smooth="yes"/>
      <point x="58" y="433" type="line" smooth="yes"/>
      <point x="58" y="418"/>
      <point x="70" y="406"/>
      <point x="85" y="406" type="curve" smooth="yes"/>
      <point x="166" y="406" type="line" smooth="yes"/>
      <point x="215" y="406"/>
      <point x="240" y="382"/>
      <point x="240" y="332" type="curve" smooth="yes"/>
      <point x="240" y="281" type="line"/>
      <point x="112" y="263"/>
      <point x="12" y="157"/>
      <point x="12" y="34" type="curve" smooth="yes" name="hr01"/>
      <point x="12" y="29" type="line" smooth="yes"/>
      <point x="12" y="14"/>
      <point x="24" y="0"/>
      <point x="39" y="0" type="curve" smooth="yes"/>
      <point x="218" y="0" type="line" smooth="yes"/>
      <point x="233" y="0"/>
      <point x="245" y="12"/>
      <point x="245" y="29" type="curve" smooth="yes"/>
      <point x="245" y="38" type="line" smooth="yes"/>
      <point x="245" y="77"/>
      <point x="272" y="100"/>
      <point x="305" y="105" type="curve"/>
      <point x="341" y="26" type="line" smooth="yes"/>
      <point x="348" y="12"/>
      <point x="353" y="0"/>
      <point x="368" y="0" type="curve" smooth="yes"/>
      <point x="547" y="0" type="line" smooth="yes" name="hr02"/>
      <point x="562" y="0"/>
      <point x="579" y="12"/>
      <point x="574" y="27" type="curve"/>
    </contour>
  </outline>
</glyph>
<glyph name="hehebrew" format="1">
  <advance width="668"/>
  <unicode hex="05D4"/>
  <outline>
    <contour>
      <point x="74" y="571" type="line" smooth="yes" name="hr00"/>
      <point x="59" y="571"/>
      <point x="47" y="559"/>
      <point x="47" y="544" type="curve" smooth="yes"/>
      <point x="47" y="423" type="line" smooth="yes"/>
      <point x="47" y="408"/>
      <point x="59" y="396"/>
      <point x="74" y="396" type="curve" smooth="yes"/>
      <point x="330" y="396" type="line" smooth="yes"/>
      <point x="379" y="396"/>
      <point x="404" y="371"/>
      <point x="404" y="321" type="curve" smooth="yes"/>
      <point x="404" y="26" type="line" smooth="yes"/>
      <point x="404" y="11"/>
      <point x="416" y="0"/>
      <point x="431" y="0" type="curve" smooth="yes"/>
      <point x="600" y="0" type="line" smooth="yes"/>
      <point x="615" y="0"/>
      <point x="627" y="12"/>
      <point x="627" y="27" type="curve" smooth="yes"/>
      <point x="627" y="317" type="line" smooth="yes"/>
      <point x="627" y="501"/>
      <point x="520" y="571"/>
      <point x="335" y="571" type="curve" smooth="yes"/>
    </contour>
    <contour>
      <point x="270" y="27" type="curve"/>
      <point x="270" y="329" type="line" smooth="yes"/>
      <point x="270" y="344"/>
      <point x="258" y="356"/>
      <point x="243" y="356" type="curve" smooth="yes"/>
      <point x="74" y="356" type="line" smooth="yes"/>
      <point x="59" y="356"/>
      <point x="47" y="344"/>
      <point x="47" y="329" type="curve" smooth="yes"/>
      <point x="47" y="27" type="line" smooth="yes"/>
      <point x="47" y="12"/>
      <point x="59" y="0"/>
      <point x="74" y="0" type="curve" smooth="yes"/>
      <point x="243" y="0" type="line" smooth="yes"/>
      <point x="258" y="0"/>
      <point x="270" y="12"/>
    </contour>
  </outline>
</glyph>
<glyph name="zayinhebrew" format="1">
  <advance width="500"/>
  <unicode hex="05D6"/>
  <outline>
    <contour>
      <point x="192" y="0" type="curve" name="hr00"/>
      <point x="367" y="0" type="line" smooth="yes"/>
      <point x="382" y="0"/>
      <point x="394" y="12"/>
      <point x="394" y="27" type="curve" smooth="yes"/>
      <point x="394" y="301" type="line" smooth="yes"/>
      <point x="394" y="368"/>
      <point x="398" y="396"/>
      <point x="441" y="396" type="curve" smooth="yes"/>
      <point x="448" y="396" type="line" smooth="yes"/>
      <point x="465" y="396"/>
      <point x="475" y="410"/>
      <point x="475" y="423" type="curve" smooth="yes"/>
      <point x="475" y="544" type="line" smooth="yes"/>
      <point x="475" y="559"/>
      <point x="463" y="571"/>
      <point x="448" y="571" type="curve" smooth="yes"/>
      <point x="40" y="571" type="line" smooth="yes"/>
      <point x="25" y="571"/>
      <point x="13" y="559"/>
      <point x="13" y="544" type="curve" smooth="yes"/>
      <point x="13" y="423" type="line" smooth="yes"/>
      <point x="13" y="408"/>
      <point x="25" y="396"/>
      <point x="40" y="396" type="curve" smooth="yes"/>
      <point x="183" y="396" type="line"/>
      <point x="167" y="380"/>
      <point x="165" y="346"/>
      <point x="165" y="298" type="curve" smooth="yes"/>
      <point x="165" y="27" type="line" smooth="yes"/>
      <point x="165" y="12"/>
      <point x="177" y="0"/>
    </contour>
  </outline>
</glyph>
<glyph name="kafhebrew" format="1">
  <advance width="537"/>
  <unicode hex="05DB"/>
  <outline>
    <contour>
      <point x="295" y="311" type="curve" smooth="yes" name="hr00"/>
      <point x="296" y="291"/>
      <point x="296" y="280"/>
      <point x="295" y="260" type="curve" smooth="yes"/>
      <point x="292" y="210"/>
      <point x="260" y="185"/>
      <point x="211" y="185" type="curve" smooth="yes"/>
      <point x="64" y="185" type="line" smooth="yes"/>
      <point x="49" y="185"/>
      <point x="37" y="173"/>
      <point x="37" y="158" type="curve" smooth="yes"/>
      <point x="37" y="27" type="line" smooth="yes"/>
      <point x="37" y="12"/>
      <point x="49" y="0"/>
      <point x="64" y="0" type="curve" smooth="yes"/>
      <point x="216" y="0" type="line" smooth="yes"/>
      <point x="421" y="0"/>
      <point x="500" y="109"/>
      <point x="508" y="263" type="curve" smooth="yes"/>
      <point x="509" y="283"/>
      <point x="509" y="288"/>
      <point x="508" y="308" type="curve" smooth="yes"/>
      <point x="500" y="462"/>
      <point x="421" y="571"/>
      <point x="216" y="571" type="curve" smooth="yes"/>
      <point x="64" y="571" type="line" smooth="yes"/>
      <point x="49" y="571"/>
      <point x="37" y="559"/>
      <point x="37" y="544" type="curve" smooth="yes"/>
      <point x="37" y="413" type="line" smooth="yes"/>
      <point x="37" y="398"/>
      <point x="49" y="386"/>
      <point x="64" y="386" type="curve" smooth="yes"/>
      <point x="211" y="386" type="line" smooth="yes"/>
      <point x="260" y="386"/>
      <point x="292" y="361"/>
    </contour>
  </outline>
</glyph>
<glyph name="lamedhebrew" format="1">
  <advance width="557"/>
  <unicode hex="05DC"/>
  <outline>
    <contour>
      <point x="285" y="386" type="line" name="hr00"/>
      <point x="43" y="386" type="line" smooth="yes"/>
      <point x="28" y="386"/>
      <point x="16" y="398"/>
      <point x="16" y="413" type="curve" smooth="yes"/>
      <point x="16" y="683" type="line" smooth="yes"/>
      <point x="16" y="698"/>
      <point x="28" y="710"/>
      <point x="43" y="710" type="curve" smooth="yes"/>
      <point x="196" y="710" type="line" smooth="yes"/>
      <point x="211" y="710"/>
      <point x="223" y="698"/>
      <point x="223" y="683" type="curve" smooth="yes"/>
      <point x="223" y="571" type="line"/>
      <point x="490" y="571" type="line" smooth="yes"/>
      <point x="505" y="571"/>
      <point x="517" y="559"/>
      <point x="517" y="544" type="curve" smooth="yes"/>
      <point x="517" y="245" type="line" smooth="yes"/>
      <point x="517" y="96"/>
      <point x="411" y="-10"/>
      <point x="226" y="-10" type="curve" smooth="yes"/>
      <point x="189" y="-10" type="line" smooth="yes"/>
      <point x="174" y="-10"/>
      <point x="162" y="2"/>
      <point x="162" y="17" type="curve" smooth="yes"/>
      <point x="162" y="148" type="line" smooth="yes"/>
      <point x="162" y="163"/>
      <point x="174" y="175"/>
      <point x="189" y="175" type="curve" smooth="yes"/>
      <point x="221" y="175" type="line" smooth="yes"/>
      <point x="255" y="175"/>
      <point x="285" y="195"/>
      <point x="285" y="250" type="curve" smooth="yes"/>
    </contour>
  </outline>
</glyph>
<glyph name="finaltsadihebrew" format="1">
  <advance width="590"/>
  <unicode hex="05E5"/>
  <outline>
    <contour>
      <point x="238" y="547" type="line" name="hr00"/>
      <point x="233" y="559"/>
      <point x="224" y="571"/>
      <point x="204" y="571" type="curve" smooth="yes"/>
      <point x="32" y="571" type="line" smooth="yes"/>
      <point x="20" y="571"/>
      <point x="9" y="561"/>
      <point x="9" y="550" type="curve" smooth="yes"/>
      <point x="9" y="547"/>
      <point x="9" y="545"/>
      <point x="11" y="539" type="curve" smooth="yes"/>
      <point x="256" y="-100" type="line" smooth="yes"/>
      <point x="261" y="-112"/>
      <point x="271" y="-124"/>
      <point x="291" y="-124" type="curve" smooth="yes"/>
      <point x="460" y="-124" type="line" smooth="yes"/>
      <point x="472" y="-124"/>
      <point x="482" y="-115"/>
      <point x="482" y="-103" type="curve" smooth="yes"/>
      <point x="482" y="-100"/>
      <point x="481" y="-97"/>
      <point x="479" y="-91" type="curve" smooth="yes"/>
      <point x="387" y="151" type="line"/>
      <point x="475" y="199"/>
      <point x="566" y="282"/>
      <point x="566" y="422" type="curve" smooth="yes"/>
      <point x="566" y="542" type="line" smooth="yes"/>
      <point x="566" y="557"/>
      <point x="554" y="571"/>
      <point x="539" y="571" type="curve" smooth="yes"/>
      <point x="390" y="571" type="line" smooth="yes"/>
      <point x="375" y="571"/>
      <point x="363" y="559"/>
      <point x="363" y="542" type="curve" smooth="yes"/>
      <point x="363" y="431" type="line" smooth="yes"/>
      <point x="363" y="381"/>
      <point x="339" y="354"/>
      <point x="317" y="337" type="curve"/>
    </contour>
  </outline>
</glyph>
<glyph name="endash" format="1">
  <advance width="561"/>
  <unicode hex="2013"/>
  <outline>
    <contour>
      <point x="73" y="398" type="line" smooth="yes" name="hr00"/>
      <point x="58" y="398"/>
      <point x="46" y="386"/>
      <point x="46" y="371" type="curve" smooth="yes"/>
      <point x="46" y="229" type="line" smooth="yes"/>
      <point x="46" y="214"/>
      <point x="58" y="202"/>
      <point x="73" y="202" type="curve" smooth="yes"/>
      <point x="488" y="202" type="line" smooth="yes"/>
      <point x="503" y="202"/>
      <point x="515" y="214"/>
      <point x="515" y="229" type="curve" smooth="yes"/>
      <point x="515" y="371" type="line" smooth="yes"/>
      <point x="515" y="386"/>
      <point x="503" y="398"/>
      <point x="488" y="398" type="curve" smooth="yes"/>
    </contour>
  </outline>
</glyph>
<glyph name="parenleftinferior" format="1">
  <advance width="261"/>
  <unicode hex="208D"/>
  <outline>
    <contour>
      <point x="209" y="-114" type="curve" smooth="yes"/>
      <point x="162" y="-103"/>
      <point x="144" y="-62"/>
      <point x="144" y="10" type="curve" smooth="yes"/>
      <point x="144" y="82"/>
      <point x="162" y="123"/>
      <point x="209" y="134" type="curve" smooth="yes"/>
      <point x="223" y="137"/>
      <point x="236" y="140"/>
      <point x="236" y="155" type="curve" smooth="yes" name="hr01"/>
      <point x="236" y="223" type="line" smooth="yes"/>
      <point x="236" y="238"/>
      <point x="227" y="245"/>
      <point x="212" y="245" type="curve" smooth="yes"/>
      <point x="139" y="245"/>
      <point x="24" y="198"/>
      <point x="24" y="10" type="curve" smooth="yes"/>
      <point x="24" y="-178"/>
      <point x="139" y="-225"/>
      <point x="212" y="-225" type="curve" smooth="yes"/>
      <point x="227" y="-225"/>
      <point x="236" y="-218"/>
      <point x="236" y="-203" type="curve" smooth="yes"/>
      <point x="236" y="-135" type="line" smooth="yes"/>
      <point x="236" y="-120"/>
      <point x="223" y="-117"/>
    </contour>
  </outline>
</glyph>
<glyph name="sheqel" format="1">
  <advance width="1090"/>
  <unicode hex="20AA"/>
  <outline>
    <contour>
      <point x="79" y="571" type="line" smooth="yes" name="hr00"/>
      <point x="64" y="571"/>
      <point x="52" y="559"/>
      <point x="52" y="544" type="curve" smooth="yes"/>
      <point x="52" y="27" type="line" smooth="yes"/>
      <point x="52" y="12"/>
      <point x="64" y="0"/>
      <point x="79" y="0" type="curve" smooth="yes"/>
      <point x="248" y="0" type="line" smooth="yes"/>
      <point x="263" y="0"/>
      <point x="275" y="12"/>
      <point x="275" y="27" type="curve" smooth="yes"/>
      <point x="275" y="396" type="line"/>
      <point x="490" y="396" type="line" smooth="yes"/>
      <point x="539" y="396"/>
      <point x="564" y="371"/>
      <point x="564" y="321" type="curve" smooth="yes"/>
      <point x="564" y="236" type="line" smooth="yes"/>
      <point x="564" y="221"/>
      <point x="576" y="210"/>
      <point x="591" y="210" type="curve" smooth="yes"/>
      <point x="760" y="210" type="line" smooth="yes"/>
      <point x="775" y="210"/>
      <point x="787" y="222"/>
      <point x="787" y="237" type="curve" smooth="yes"/>
      <point x="787" y="317" type="line" smooth="yes"/>
      <point x="787" y="513"/>
      <point x="685" y="571"/>
      <point x="495" y="571" type="curve" smooth="yes"/>
    </contour>
    <contour>
      <point x="751" y="0" type="line"/>
      <point x="941" y="0"/>
      <point x="1043" y="58"/>
      <point x="1043" y="254" type="curve" smooth="yes"/>
      <point x="1043" y="544" type="line" smooth="yes"/>
      <point x="1043" y="559"/>
      <point x="1031" y="571"/>
      <point x="1016" y="571" type="curve" smooth="yes"/>
      <point x="847" y="571" type="line" smooth="yes"/>
      <point x="832" y="571"/>
      <point x="820" y="560"/>
      <point x="820" y="545" type="curve" smooth="yes"/>
      <point x="820" y="250" type="line" smooth="yes"/>
      <point x="820" y="200"/>
      <point x="795" y="175"/>
      <point x="746" y="175" type="curve" smooth="yes"/>
      <point x="531" y="175" type="line"/>
      <point x="531" y="334" type="line" smooth="yes"/>
      <point x="531" y="349"/>
      <point x="519" y="361"/>
      <point x="504" y="361" type="curve" smooth="yes"/>
      <point x="335" y="361" type="line" smooth="yes"/>
      <point x="320" y="361"/>
      <point x="308" y="349"/>
      <point x="308" y="334" type="curve" smooth="yes"/>
      <point x="308" y="27" type="line" smooth="yes"/>
      <point x="308" y="12"/>
      <point x="320" y="0"/>
      <point x="335" y="0" type="curve"/>
    </contour>
  </outline>
</glyph>
<glyph name="shinshindothebrew" format="1">
  <advance width="874"/>
  <unicode hex="FB2A"/>
  <outline>
    <contour>
      <point x="750" y="611" type="line" smooth="yes" name="hr00"/>
      <point x="765" y="611"/>
      <point x="777" y="623"/>
      <point x="777" y="638" type="curve" smooth="yes"/>
      <point x="777" y="673" type="line" smooth="yes"/>
      <point x="777" y="688"/>
      <point x="765" y="700"/>
      <point x="750" y="700" type="curve" smooth="yes"/>
      <point x="715" y="700" type="line" smooth="yes"/>
      <point x="700" y="700"/>
      <point x="688" y="688"/>
      <point x="688" y="673" type="curve" smooth="yes"/>
      <point x="688" y="638" type="line" smooth="yes"/>
      <point x="688" y="623"/>
      <point x="700" y="611"/>
      <point x="715" y="611" type="curve" smooth="yes"/>
    </contour>
    <component base="shinhebrew"/>
  </outline>
</glyph>
<glyph name="shindageshsindothebrew" format="1">
  <advance width="874"/>
  <unicode hex="FB2D"/>
  <outline>
    <contour>
      <point x="585" y="240" type="line" smooth="yes" name="hr00"/>
      <point x="600" y="240"/>
      <point x="612" y="252"/>
      <point x="612" y="267" type="curve" smooth="yes"/>
      <point x="612" y="302" type="line" smooth="yes"/>
      <point x="612" y="317"/>
      <point x="600" y="329"/>
      <point x="585" y="329" type="curve" smooth="yes"/>
      <point x="550" y="329" type="line" smooth="yes"/>
      <point x="535" y="329"/>
      <point x="523" y="317"/>
      <point x="523" y="302" type="curve" smooth="yes"/>
      <point x="523" y="267" type="line" smooth="yes"/>
      <point x="523" y="252"/>
      <point x="535" y="240"/>
      <point x="550" y="240" type="curve" smooth="yes"/>
    </contour>
    <contour>
      <point x="743" y="611" type="line" smooth="yes"/>
      <point x="758" y="611"/>
      <point x="770" y="623"/>
      <point x="770" y="638" type="curve" smooth="yes"/>
      <point x="770" y="673" type="line" smooth="yes"/>
      <point x="770" y="688"/>
      <point x="758" y="700"/>
      <point x="743" y="700" type="curve" smooth="yes"/>
      <point x="708" y="700" type="line" smooth="yes"/>
      <point x="693" y="700"/>
      <point x="681" y="688"/>
      <point x="681" y="673" type="curve" smooth="yes"/>
      <point x="681" y="638" type="line" smooth="yes"/>
      <point x="681" y="623"/>
      <point x="693" y="611"/>
      <point x="708" y="611" type="curve" smooth="yes"/>
    </contour>
    <component base="shinhebrew"/>
  </outline>
</glyph>
<glyph name="vavdageshhebrew" format="1">
  <advance width="419"/>
  <unicode hex="FB35"/>
  <outline>
    <contour>
      <point x="77" y="241" type="line" smooth="yes" name="hr00"/>
      <point x="92" y="241"/>
      <point x="104" y="253"/>
      <point x="104" y="268" type="curve" smooth="yes"/>
      <point x="104" y="303" type="line" smooth="yes"/>
      <point x="104" y="318"/>
      <point x="92" y="330"/>
      <point x="77" y="330" type="curve" smooth="yes"/>
      <point x="42" y="330" type="line" smooth="yes"/>
      <point x="27" y="330"/>
      <point x="15" y="318"/>
      <point x="15" y="303" type="curve" smooth="yes"/>
      <point x="15" y="268" type="line" smooth="yes"/>
      <point x="15" y="253"/>
      <point x="27" y="241"/>
      <point x="42" y="241" type="curve" smooth="yes"/>
    </contour>
    <component base="vavhebrew" xOffset="92"/>
  </outline>
</glyph>
<glyph name="lameddageshhebrew" format="1">
  <advance width="557"/>
  <unicode hex="FB3C"/>
  <outline>
    <contour>
      <point x="175" y="240" type="line" smooth="yes" name="hr00"/>
      <point x="190" y="240"/>
      <point x="202" y="252"/>
      <point x="202" y="267" type="curve" smooth="yes"/>
      <point x="202" y="302" type="line" smooth="yes"/>
      <point x="202" y="317"/>
      <point x="190" y="329"/>
      <point x="175" y="329" type="curve" smooth="yes"/>
      <point x="140" y="329" type="line" smooth="yes"/>
      <point x="125" y="329"/>
      <point x="113" y="317"/>
      <point x="113" y="302" type="curve" smooth="yes"/>
      <point x="113" y="267" type="line" smooth="yes"/>
      <point x="113" y="252"/>
      <point x="125" y="240"/>
      <point x="140" y="240" type="curve" smooth="yes"/>
    </contour>
    <component base="lamedhebrew"/>
  </outline>
</glyph>
<glyph name="tsadidageshhebrew" format="1">
  <advance width="610"/>
  <unicode hex="FB46"/>
  <outline>
    <contour>
      <point x="118" y="240" type="line" smooth="yes" name="hr00"/>
      <point x="133" y="240"/>
      <point x="145" y="252"/>
      <point x="145" y="267" type="curve" smooth="yes"/>
      <point x="145" y="302" type="line" smooth="yes"/>
      <point x="145" y="317"/>
      <point x="133" y="329"/>
      <point x="118" y="329" type="curve" smooth="yes"/>
      <point x="83" y="329" type="line" smooth="yes"/>
      <point x="68" y="329"/>
      <point x="56" y="317"/>
      <point x="56" y="302" type="curve" smooth="yes"/>
      <point x="56" y="267" type="line" smooth="yes"/>
      <point x="56" y="252"/>
      <point x="68" y="240"/>
      <point x="83" y="240" type="curve" smooth="yes"/>
    </contour>
    <component base="tsadihebrew"/>
  </outline>
</glyph>
<glyph name="endash.cap" format="1">
  <advance width="573"/>
  <outline>
    <contour>
      <point x="79" y="448" type="line" smooth="yes" name="hr00"/>
      <point x="64" y="448"/>
      <point x="52" y="436"/>
      <point x="52" y="421" type="curve" smooth="yes"/>
      <point x="52" y="279" type="line" smooth="yes"/>
      <point x="52" y="264"/>
      <point x="64" y="252"/>
      <point x="79" y="252" type="curve" smooth="yes"/>
      <point x="494" y="252" type="line" smooth="yes"/>
      <point x="509" y="252"/>
      <point x="521" y="264"/>
      <point x="521" y="279" type="curve" smooth="yes"/>
      <point x="521" y="421" type="line" smooth="yes"/>
      <point x="521" y="436"/>
      <point x="509" y="448"/>
      <point x="494" y="448" type="curve" smooth="yes"/>
    </contour>
  </outline>
</glyph>
<glyph name="four.otlf" format="1">
  <advance width="700"/>
  <outline>
    <contour>
      <point x="575" y="315" type="line" name="hr00"/>
      <point x="575" y="673" type="line" smooth="yes"/>
      <point x="575" y="688"/>
      <point x="563" y="700"/>
      <point x="548" y="700" type="curve" smooth="yes"/>
      <point x="340" y="700" type="line" smooth="yes"/>
      <point x="324" y="700"/>
      <point x="311" y="693"/>
      <point x="303" y="683" type="curve" smooth="yes"/>
      <point x="20" y="313" type="line" smooth="yes"/>
      <point x="16" y="308"/>
      <point x="9" y="299"/>
      <point x="9" y="282" type="curve" smooth="yes"/>
      <point x="9" y="139" type="line" smooth="yes"/>
      <point x="9" y="124"/>
      <point x="21" y="112"/>
      <point x="36" y="112" type="curve" smooth="yes"/>
      <point x="335" y="112" type="line"/>
      <point x="335" y="27" type="line" smooth="yes"/>
      <point x="335" y="12"/>
      <point x="347" y="0"/>
      <point x="362" y="0" type="curve" smooth="yes"/>
      <point x="548" y="0" type="line" smooth="yes"/>
      <point x="563" y="0"/>
      <point x="575" y="12"/>
      <point x="575" y="27" type="curve" smooth="yes"/>
      <point x="575" y="112" type="line"/>
      <point x="663" y="112" type="line" smooth="yes"/>
      <point x="678" y="112"/>
      <point x="690" y="124"/>
      <point x="690" y="139" type="curve" smooth="yes"/>
      <point x="690" y="288" type="line" smooth="yes"/>
      <point x="690" y="302"/>
      <point x="679" y="315"/>
      <point x="662" y="315" type="curve" smooth="yes"/>
    </contour>
    <contour>
      <point x="237" y="304" type="line"/>
      <point x="342" y="448" type="line"/>
      <point x="342" y="304" type="line"/>
    </contour>
  </outline>
</glyph>
